# xmcd
#
# Track frame offsets:
#	150
#	12747
#	27543
#	48971
#	63723
#	91726
#	104795
#	121033
#	140263
#	153219
#	167375
#	181125
#
# Disc length: 2627 seconds
#
# Revision: 1
# Processed by: cddbd v1.4PL0 Copyright (c) Steve Scherf et al.
# Submitted via: audiograbber 1.80.04
#
DISCID=970a410c
DTITLE=Star Room Boys - This World Just Won't Leave You Alone
DYEAR=2001
DGENRE=Country
TTITLE0=White Lies, Blue Tears
TTITLE1=If I Can Ever Get It Back Again
TTITLE2=Whiskey And You
TTITLE3=I Can't Stand To Be Alone
TTITLE4=Cocaine Parties
TTITLE5=The Daydreamer
TTITLE6=When I'm All The Way Down
TTITLE7=The 4:05
TTITLE8=I'll Play Angel
TTITLE9=Bars And Stone
TTITLE10=Time
TTITLE11=This World Just Won't Leave You Alone
EXTD=
EXTT0=
EXTT1=
EXTT2=
EXTT3=
EXTT4=
EXTT5=
EXTT6=
EXTT7=
EXTT8=
EXTT9=
EXTT10=
EXTT11=
PLAYORDER=
